<?xml version="1.0" encoding="utf-8"?>
<!-- Generator: Adobe Illustrator 17.0.0, SVG Export Plug-In . SVG Version: 6.00 Build 0)  -->
<!DOCTYPE svg PUBLIC "-//W3C//DTD SVG 1.1//EN" "http://www.w3.org/Graphics/SVG/1.1/DTD/svg11.dtd">
<svg version="1.1" id="Layer_1" xmlns="http://www.w3.org/2000/svg" xmlns:xlink="http://www.w3.org/1999/xlink" x="0px" y="0px"
	 width="202.449px" height="30.405px" viewBox="0 0 202.449 30.405" enable-background="new 0 0 202.449 30.405"
	 xml:space="preserve">
<g>
	<path fill="#6D6E71" d="M108.196,28.15c0-0.388-0.154-0.708-0.462-0.961c-0.309-0.253-0.832-0.49-1.569-0.711
		c-0.807-0.221-1.42-0.498-1.841-0.829s-0.631-0.78-0.631-1.348c0-0.579,0.235-1.054,0.706-1.426
		c0.471-0.372,1.073-0.558,1.803-0.558c0.768,0,1.387,0.21,1.855,0.631s0.695,0.956,0.681,1.603l-0.011,0.031h-0.581
		c0-0.498-0.181-0.912-0.544-1.241c-0.361-0.329-0.828-0.493-1.399-0.493c-0.59,0-1.05,0.139-1.385,0.418
		c-0.334,0.279-0.501,0.621-0.501,1.026c0,0.385,0.151,0.7,0.454,0.948c0.303,0.248,0.837,0.479,1.604,0.693
		c0.796,0.233,1.403,0.518,1.823,0.857c0.419,0.34,0.628,0.79,0.628,1.351c0,0.589-0.245,1.063-0.735,1.421
		c-0.49,0.358-1.107,0.538-1.852,0.538s-1.394-0.19-1.949-0.569c-0.554-0.379-0.822-0.933-0.805-1.66l0.011-0.031h0.577
		c0,0.585,0.219,1.021,0.659,1.306c0.44,0.286,0.942,0.428,1.507,0.428c0.579,0,1.049-0.132,1.413-0.397
		C108.015,28.911,108.196,28.569,108.196,28.15z"/>
	<path fill="#6D6E71" d="M111.137,29.989h-0.623v-7.564h0.623V29.989z"/>
	<path fill="#6D6E71" d="M118.804,29.989h-0.623l-4.297-6.474l-0.03,0.006v6.468h-0.624v-7.564h0.624l4.296,6.458l0.032-0.006
		v-6.452h0.623V29.989z"/>
	<path fill="#6D6E71" d="M125.948,27.625l0.011,0.031c0.014,0.741-0.228,1.333-0.728,1.777c-0.498,0.443-1.153,0.665-1.964,0.665
		c-0.841,0-1.52-0.304-2.036-0.912c-0.516-0.608-0.774-1.395-0.774-2.361v-1.232c0-0.963,0.257-1.749,0.774-2.361
		c0.516-0.611,1.194-0.917,2.036-0.917c0.821,0,1.478,0.217,1.972,0.65c0.494,0.432,0.734,1.028,0.72,1.787l-0.011,0.031h-0.581
		c0-0.61-0.187-1.085-0.559-1.426s-0.886-0.511-1.54-0.511c-0.662,0-1.192,0.256-1.592,0.769c-0.4,0.513-0.601,1.169-0.601,1.969
		v1.242c0,0.81,0.201,1.471,0.601,1.982c0.4,0.511,0.93,0.766,1.592,0.766c0.655,0,1.168-0.166,1.54-0.498
		c0.372-0.333,0.559-0.816,0.559-1.45H125.948z"/>
	<path fill="#6D6E71" d="M131.576,26.326h-3.392v3.138h3.922v0.525h-4.546v-7.564h4.52v0.53h-3.896v2.841h3.392V26.326z"/>
	<path fill="#6D6E71" d="M138.469,29.989h-0.624V22.96l-1.792,0.218v-0.498l2.416-0.364V29.989z"/>
	<path fill="#6D6E71" d="M143.634,29.573c0.554,0,0.995-0.183,1.324-0.55c0.328-0.367,0.493-0.88,0.493-1.538v-1.101
		c-0.183,0.308-0.428,0.545-0.735,0.711c-0.306,0.166-0.645,0.25-1.016,0.25c-0.685,0-1.236-0.228-1.65-0.684
		c-0.414-0.455-0.62-1.048-0.62-1.779c0-0.738,0.216-1.35,0.649-1.837c0.433-0.486,0.976-0.73,1.626-0.73
		c0.714,0,1.29,0.234,1.73,0.702c0.44,0.467,0.66,1.132,0.66,1.995v2.462c0,0.821-0.228,1.464-0.684,1.928
		c-0.455,0.464-1.048,0.696-1.778,0.696c-0.26,0-0.523-0.028-0.787-0.083c-0.266-0.055-0.522-0.137-0.772-0.244l0.115-0.504
		c0.228,0.111,0.453,0.19,0.673,0.237C143.082,29.55,143.34,29.573,143.634,29.573z M143.701,26.82c0.44,0,0.811-0.111,1.113-0.332
		c0.3-0.221,0.513-0.495,0.638-0.821v-0.722c0-0.672-0.155-1.19-0.466-1.554c-0.313-0.363-0.729-0.545-1.253-0.545
		c-0.489,0-0.887,0.196-1.196,0.587c-0.307,0.392-0.462,0.875-0.462,1.45c0,0.554,0.145,1.016,0.435,1.385
		C142.798,26.636,143.196,26.82,143.701,26.82z"/>
	<path fill="#6D6E71" d="M149.53,29.573c0.554,0,0.995-0.183,1.324-0.55c0.328-0.367,0.493-0.88,0.493-1.538v-1.101
		c-0.183,0.308-0.428,0.545-0.735,0.711c-0.306,0.166-0.645,0.25-1.016,0.25c-0.685,0-1.236-0.228-1.65-0.684
		c-0.414-0.455-0.62-1.048-0.62-1.779c0-0.738,0.216-1.35,0.649-1.837c0.433-0.486,0.976-0.73,1.626-0.73
		c0.714,0,1.29,0.234,1.73,0.702c0.44,0.467,0.66,1.132,0.66,1.995v2.462c0,0.821-0.228,1.464-0.684,1.928
		c-0.455,0.464-1.048,0.696-1.778,0.696c-0.26,0-0.523-0.028-0.787-0.083c-0.266-0.055-0.522-0.137-0.772-0.244l0.115-0.504
		c0.228,0.111,0.453,0.19,0.673,0.237C148.978,29.55,149.235,29.573,149.53,29.573z M149.597,26.82c0.44,0,0.811-0.111,1.113-0.332
		c0.3-0.221,0.513-0.495,0.638-0.821v-0.722c0-0.672-0.155-1.19-0.466-1.554c-0.313-0.363-0.729-0.545-1.253-0.545
		c-0.489,0-0.887,0.196-1.196,0.587c-0.307,0.392-0.462,0.875-0.462,1.45c0,0.554,0.145,1.016,0.435,1.385
		C148.694,26.636,149.091,26.82,149.597,26.82z"/>
	<path fill="#6D6E71" d="M157.203,27.552h1.185v0.525h-1.185v1.912h-0.617v-1.912h-3.477v-0.353l3.414-5.299h0.68V27.552z
		 M153.847,27.552h2.739V23.24l-0.032-0.01l-0.264,0.567L153.847,27.552z"/>
</g>
<g>
	<path fill-rule="evenodd" clip-rule="evenodd" fill="#ED1F24" d="M21.908,1.915c-0.612-1.021-1.348-1.675-2.491-1.675
		c-1.143,0-1.918,0.653-2.53,1.675L0,30.327h5.918L19.212,7.548l11.091,18.253H12.215L9.71,30.327h29.302L21.908,1.915z"/>
	<g>
		<g>
			<path fill="#ED1F24" d="M50.014,20.898c3.806-1.485,6.073-4.997,6.073-9.952C56.087,4.254,52.121,0,45.397,0H23.91l3.238,5.245
				h18.249c3.524,0,5.63,1.899,5.63,5.781c0,3.882-1.946,6.032-5.63,6.032H34.721l2.746,4.624h6.746l5.057,8.722h6.51"/>
			<path fill="#ED1F24" d="M67.771,0H56.179l3.025,5.241l8.567,0.006c5.303,0,9.19,4.394,9.19,10.052
				c0,5.659-3.886,9.828-9.19,9.828l-11.526,0.011l2.959,5.236h8.567c8.298,0,14.33-6.609,14.33-15.323
				C82.101,6.336,76.069,0,67.771,0z"/>
		</g>
	</g>
</g>
<g>
	<rect x="92.894" y="0" fill="#BCBEC0" width="0.709" height="30.405"/>
</g>
<g>
	<path fill="#6D6E71" d="M127.015,0h1.04l6.11,15.47h-1.019l-1.949-4.961h-7.41l-1.972,4.961h-1.018L127.015,0z M130.893,9.685
		l-3.315-8.754h-0.044l-3.445,8.754H130.893z"/>
	<path fill="#6D6E71" d="M142.031,0h1.04l6.11,15.47h-1.019l-1.949-4.961h-7.41l-1.972,4.961h-1.018L142.031,0z M145.909,9.685
		l-3.315-8.754h-0.043l-3.445,8.754H145.909z"/>
	<path fill="#6D6E71" d="M149.7,0.823V0h11.852v0.823h-5.46V15.47h-0.953V0.823H149.7z"/>
	<path fill="#6D6E71" d="M164.78,0h9.447v0.823h-8.493V15.47h-0.954V0z"/>
	<path fill="#6D6E71" d="M180.631,0h1.04l6.11,15.47h-1.019l-1.949-4.961h-7.41l-1.972,4.961h-1.018L180.631,0z M184.509,9.685
		l-3.315-8.754h-0.043l-3.445,8.754H184.509z"/>
	<path fill="#6D6E71" d="M202.449,0v15.47h-0.953V0.823h-6.847l-0.346,9.728c-0.029,0.925-0.112,1.712-0.249,2.362
		c-0.137,0.65-0.336,1.181-0.596,1.593c-0.26,0.412-0.582,0.711-0.964,0.899c-0.383,0.188-0.834,0.282-1.355,0.282
		c-0.274,0-0.527-0.026-0.758-0.076c-0.231-0.051-0.448-0.112-0.65-0.184V14.56c0.404,0.203,0.837,0.304,1.3,0.304
		c0.36,0,0.682-0.068,0.964-0.206c0.282-0.138,0.516-0.379,0.704-0.726c0.187-0.346,0.335-0.805,0.444-1.376
		c0.108-0.571,0.176-1.289,0.206-2.156L193.718,0H202.449z"/>
	<path fill="#6D6E71" d="M105.717,15.47L105.717,15.47l12.112-0.001v0.001h0.932v-0.824h-1.56V0h-8.732v2.145
		c0,0.866-0.018,1.816-0.054,2.849c-0.036,1.033-0.13,2.095-0.282,3.185c-0.151,1.09-0.383,2.188-0.693,3.293
		c-0.311,1.105-0.741,2.163-1.289,3.174h-1.365v0.824H105.717z M108.414,11.516c0.296-1.09,0.52-2.174,0.672-3.251
		c0.152-1.076,0.245-2.123,0.282-3.142c0.036-1.018,0.054-1.96,0.054-2.827V0.823h6.825v13.823h-9.057
		C107.71,13.65,108.118,12.606,108.414,11.516z"/>
</g>
</svg>
